PathFileType	4	(X/Y/Z)	s03c0402.trc
DataRate	CameraRate	NumFrames	NumMarkers	Units	OrigDataRate	OrigDataStartFrame	OrigNumFrames
200	200	5	50	mm	200	750	2000
Frame#	Time	racr			lacr			c7			jug			rlel			rdr			llel			ldr			s2			lic			ric			lasi			rasi			rpsi			lpsi			rgt			lgt			rth1			rth2			rth3			rth4			rlfc			rmfc			rsh1			rsh2			rsh3			rsh4			rlmal			rcal			rtoe			rmt5			rmt1			lth1			lth2			lth4			lth3			llfc			lmfc			lsh1			lsh2			lsh3			lsh4			llmal			lcal			ltoe			lmt1			lmt5			SBIKE			LBIKE			RBIKE			
		X1	Y1	Z1	X2	Y2	Z2	X3	Y3	Z3	X4	Y4	Z4	X5	Y5	Z5	X6	Y6	Z6	X7	Y7	Z7	X8	Y8	Z8	X9	Y9	Z9	X10	Y10	Z10	X11	Y11	Z11	X12	Y12	Z12	X13	Y13	Z13	X14	Y14	Z14	X15	Y15	Z15	X16	Y16	Z16	X17	Y17	Z17	X18	Y18	Z18	X19	Y19	Z19	X20	Y20	Z20	X21	Y21	Z21	X22	Y22	Z22	X23	Y23	Z23	X24	Y24	Z24	X25	Y25	Z25	X26	Y26	Z26	X27	Y27	Z27	X28	Y28	Z28	X29	Y29	Z29	X30	Y30	Z30	X31	Y31	Z31	X32	Y32	Z32	X33	Y33	Z33	X34	Y34	Z34	X35	Y35	Z35	X36	Y36	Z36	X37	Y37	Z37	X38	Y38	Z38	X39	Y39	Z39	X40	Y40	Z40	X41	Y41	Z41	X42	Y42	Z42	X43	Y43	Z43	X44	Y44	Z44	X45	Y45	Z45	X46	Y46	Z46	X47	Y47	Z47	X48	Y48	Z48	X49	Y49	Z49	X50	Y50	Z50	
750	3.7500	755.056962	1418.597722	-58.967604	735.306673	1459.496437	-396.492788	697.096203	1539.232688	-210.993104	702.018881	1365.519764	-228.481177	614.244860	1200.616616	92.942478	744.421220	976.406816	-1.628880	619.069472	1226.084604	-534.561390	731.348892	972.548467	-460.106697	155.302219	1288.449015	-204.131356	323.176828	1315.851794	-393.427679	337.768720	1281.077865	-30.594971	335.274017	1235.310678	-360.393030	357.792539	1211.292202	-84.024582	192.858133	1330.328205	-158.732266	191.283465	1336.966662	-240.645380	271.446203	1179.656274	-24.020176	254.562328	1209.284305	-421.823621	331.710518	1027.770685	-17.873399	390.855328	961.950233	-26.693648	411.325045	880.044628	-40.248136	422.143251	979.777324	-35.237082	450.653818	760.666644	-76.594643	445.978349	747.885302	-191.006058	394.623759	601.188760	-43.499112	385.683978	512.888343	-58.071793	334.263567	441.133886	-55.282470	410.513553	505.746875	-86.426441	274.252685	323.530049	-68.782367	202.896396	290.972240	-97.192887	506.427716	222.573829	-124.796774	391.978919	232.540403	-44.276018	411.815847	245.840918	-160.178158	337.986109	1088.981053	-464.965479	403.384500	1034.267087	-481.455668	433.218367	1052.409432	-471.119509	431.880873	951.582641	-498.748719	499.025437	841.516426	-506.064459	531.090910	818.448225	-370.342477	353.991442	739.319781	-511.550793	304.852145	675.209947	-483.834953	222.322547	641.291471	-466.498285	327.982708	651.508489	-462.918952	120.354013	574.708451	-432.499871	55.242226	600.121256	-378.879102	218.784593	339.181269	-355.562738	155.359177	411.851458	-310.146648	132.310750	418.742136	-436.631614	-219.053585	944.194328	-235.073398	-14.328929	80.828367	-437.166617	-14.314748	80.399790	-36.834789	
751	3.7550	755.367524	1419.122529	-59.604479	734.090536	1460.526341	-397.148676	695.929002	1539.958641	-211.145432	702.139911	1366.253679	-229.011139	615.092207	1200.592526	92.205429	745.062615	975.883352	-0.809118	619.024042	1225.944139	-534.465107	731.513246	972.624341	-460.326773	155.281290	1287.226519	-203.928484	323.147036	1314.529186	-392.266163	338.229681	1279.529298	-29.861164	336.062744	1234.805714	-358.955036	358.497876	1209.771458	-83.154733	193.518769	1328.367412	-158.470363	190.904097	1335.837737	-240.038088	270.465120	1177.623995	-23.691443	256.387841	1209.958654	-421.255614	328.144000	1024.843741	-17.180181	385.883561	957.761271	-25.824463	404.611872	875.295671	-39.416686	417.592832	974.948855	-34.258698	441.600033	755.447192	-75.904849	438.580511	742.509698	-189.854437	386.774820	595.707150	-42.665998	379.449715	507.529735	-56.607995	328.515320	434.836112	-54.483919	403.956090	500.499501	-85.576472	269.840390	316.663980	-68.795091	198.571021	284.916861	-97.747957	501.091539	212.426629	-124.922429	386.919539	224.091050	-44.205082	406.824636	237.578669	-160.316844	341.330349	1092.742229	-465.094181	407.571415	1039.262673	-481.961147	436.854399	1057.228109	-470.363381	437.238184	957.185672	-500.249715	505.126789	847.069141	-508.025671	532.811994	822.188503	-375.039469	360.102757	745.001931	-513.049531	310.331993	681.590445	-484.718449	227.525879	648.368859	-467.398194	333.215427	657.888136	-463.558204	124.704625	582.976608	-432.907738	59.274012	607.864949	-379.247506	225.315074	348.447700	-355.660182	168.592801	427.082236	-319.985573	138.068053	427.172238	-436.766543	-219.093440	944.162675	-235.078072	-14.333284	80.822837	-437.157872	-14.327679	80.396899	-36.849987	
752	3.7600	755.671199	1419.962321	-60.205474	732.826308	1461.506031	-397.916667	694.698138	1540.864234	-211.562850	702.166485	1367.050546	-229.865819	615.809592	1200.764693	91.617009	745.570384	975.468343	-0.149879	618.886336	1225.863185	-534.544005	731.651747	972.627780	-460.766198	155.444446	1285.662832	-203.634640	323.051891	1313.434438	-391.460946	338.791038	1278.330208	-29.083001	336.868323	1234.547224	-357.545847	359.145107	1208.406678	-82.503508	194.035315	1326.793334	-158.315580	189.929984	1335.300749	-239.001589	269.473028	1175.586255	-23.450037	258.206904	1210.837763	-420.681493	324.482167	1022.040771	-16.546571	380.749596	953.771262	-24.957916	397.703247	870.940031	-38.607388	412.886654	970.091911	-33.231049	432.448846	750.524621	-75.069637	431.461904	737.158020	-187.917725	378.464371	590.770840	-42.014404	372.095197	502.138380	-56.108421	322.543636	429.111959	-53.748633	397.464411	495.561883	-84.112670	265.281431	310.318078	-68.591207	194.000220	280.032509	-97.421855	495.281349	202.732788	-124.889134	381.281385	215.972196	-43.843520	401.343500	229.092911	-160.180887	344.453395	1096.869101	-465.134806	411.605812	1044.433129	-482.290760	440.553300	1062.554149	-469.998761	442.373413	962.956537	-501.508458	511.178749	852.659631	-509.728405	533.517721	825.901960	-379.930422	366.176838	750.763200	-514.241279	315.894608	687.846802	-485.456660	232.845279	655.404200	-468.091575	338.563371	664.302648	-464.012682	129.357567	590.880713	-433.091849	63.188821	615.062950	-379.330957	232.325430	357.683762	-355.914548	174.834614	434.411464	-318.609357	144.317827	435.482668	-436.964161	-219.124571	944.156389	-235.161839	-14.313481	80.799042	-437.161480	-14.306271	80.401794	-36.853299	
753	3.7650	755.752291	1420.883663	-60.851243	731.531356	1462.509252	-398.749074	693.426814	1541.800873	-212.310599	702.007681	1367.844420	-230.636813	616.513709	1201.189997	91.054331	745.862796	975.235447	0.126251	618.663581	1225.810839	-534.800383	731.706660	972.578418	-461.412078	155.210587	1284.649570	-204.208493	322.795938	1312.522996	-390.554526	339.354586	1277.329328	-28.369728	337.627239	1234.601427	-356.310624	359.847948	1207.209084	-81.995788	194.363046	1325.327585	-157.864711	189.634090	1334.539623	-238.256915	268.597417	1173.588191	-23.193128	259.816428	1212.008904	-420.056751	320.789182	1019.441736	-15.941240	375.528674	949.937594	-24.118154	390.678542	866.790603	-37.785975	408.025243	965.729174	-32.172279	423.266289	745.969696	-74.268567	423.824326	732.025890	-186.841702	370.078951	586.386029	-41.158822	364.796222	497.587258	-55.251597	316.118998	423.906654	-53.235792	390.664925	491.253465	-83.069345	260.376872	304.702805	-68.386471	188.991154	275.710845	-97.182931	489.013634	193.161836	-124.810907	375.127791	208.147029	-44.015263	395.617836	221.520349	-159.792967	347.489837	1100.976249	-464.986118	415.242973	1049.763978	-482.773724	443.960114	1067.861622	-469.666207	447.208412	968.806528	-502.550658	517.178048	858.271695	-511.145530	534.204801	829.817612	-384.465007	372.192353	756.638741	-515.088376	321.490762	694.197838	-485.888154	238.252769	662.308247	-468.503838	344.004231	670.706169	-464.315422	134.320035	598.510595	-433.069019	67.556910	621.780975	-379.223239	239.786819	366.468225	-355.901940	181.739426	443.290216	-320.473040	151.028885	443.319311	-437.036031	-219.132365	944.146840	-235.203357	-14.313299	80.785551	-437.187471	-14.305681	80.381874	-36.860844	
754	3.7700	755.852615	1422.007655	-61.464811	730.216832	1463.463730	-399.738633	692.156799	1542.838277	-213.371259	701.875105	1368.751394	-231.384891	617.209342	1201.779360	90.628468	745.931938	975.882764	-1.073140	618.332830	1225.844300	-535.347479	731.775557	972.257669	-462.373507	155.566572	1283.373034	-203.878938	322.432273	1311.938532	-389.852216	339.963801	1276.676631	-27.773625	338.386214	1234.947627	-355.425415	361.026505	1206.476664	-81.522957	192.445997	1325.686127	-152.999388	189.450567	1333.946942	-237.193575	267.727707	1171.630954	-22.883395	261.216371	1213.470793	-419.419715	317.015351	1017.151321	-15.424185	370.204706	946.421211	-23.275399	383.516756	862.992546	-36.660827	403.147042	961.417023	-31.122691	414.043940	741.933166	-73.502601	414.528502	727.077426	-186.130106	361.632811	582.253994	-40.314844	357.306858	493.481793	-54.321303	309.253468	419.357440	-52.826734	383.494702	487.304824	-81.918737	255.211366	299.352705	-68.958447	183.355477	272.841718	-95.938940	482.250819	184.174845	-124.712687	368.577937	200.927363	-44.057244	388.962963	213.706233	-159.901381	350.231972	1105.127117	-464.804614	418.748759	1054.913434	-482.829493	447.136137	1073.230784	-469.373908	451.734903	974.577315	-503.415185	523.043367	864.256233	-512.695264	535.870128	834.164474	-388.092897	378.086336	762.702469	-515.598064	327.153566	700.577880	-486.104635	243.768017	669.137932	-468.522431	349.544836	677.005601	-464.514306	139.593646	605.694138	-432.892437	72.187268	628.121104	-379.035253	247.683907	374.789740	-355.645088	188.868128	450.292563	-319.536001	158.091159	450.472574	-436.871678	-219.133597	944.139459	-235.233359	-14.309856	80.787786	-437.191354	-14.308377	80.371789	-36.870254	
